<svg xmlns="http://www.w3.org/2000/svg" viewBox="0 0 320 80.96">
<path class="cls-1" fill="#ffffff" d="M36.12,67.91V57.79H80.75V24.56H24.56V80.91H80.91v-13Zm0-31.78H69.35V47.68H36.12ZM80.91,13H13V80.91H0V0H80.91ZM115.79,0c8.74,0,13.4,4.35,13.4,11.33,0,5.61-3.54,9.56-9.89,10.57l10.17,13.5H119.4l-9.33-13.25h-1.24V35.4h-8.45V0Zm-7,7.66v7.39h6.85c3,0,4.91-1.19,4.91-3.72s-1.92-3.67-4.91-3.67ZM157.76,35.4H150.1V32.72A8.51,8.51,0,0,1,143,36.06c-6.63,0-11.53-5.77-11.53-13.1s4.9-13,11.55-13a8.51,8.51,0,0,1,7.11,3.37V10.6h7.66ZM139.58,23c0,3.23,2.12,5.69,5.28,5.69s5.31-2.41,5.31-5.69-2.2-5.69-5.31-5.69S139.58,19.75,139.58,23Zm51.89,3.44L196.3,10.6h8.32l-8.55,24.8h-8.82l-4.83-14.84L177.64,35.4h-8.78l-8.57-24.8h8.42l4.78,15.75,5-15.75h7.91Zm-64,53.89H100.38V44.92h27v7.61H108.83v6.12H126.3v7.59H108.83v6.47h18.66Zm13.14,0h-7.91V43.91h7.91Zm29-12.41a15.61,15.61,0,0,1-.16,2.45H152.62c.66,2.71,2.58,4,5.31,4a8.29,8.29,0,0,0,5.41-2.17l5.11,4.75A15.08,15.08,0,0,1,157.52,81c-7.78,0-13.07-5.18-13.07-12.92s5.18-13.23,12.72-13.23C164.53,54.83,169.56,60.14,169.59,67.91Zm-17-2.56h9c-.63-2.48-2.17-3.79-4.47-3.79C154.74,61.56,153.25,62.9,152.64,65.35ZM213.08,64V80.32h-7.92V66.85c0-2.94-1.46-4.58-3.94-4.58-2.18,0-4,1.49-4,4.7V80.32h-7.92V66.85c0-2.94-1.46-4.58-3.92-4.58-2.2,0-4,1.49-4,4.7V80.32h-7.91V55.52H181v3.11c1.57-2.61,4.07-3.8,7.39-3.8A8.43,8.43,0,0,1,196,59c1.67-2.86,4.45-4.15,7.86-4.15C209.49,54.83,213.08,58.32,213.08,64Zm28.86,3.87a17.08,17.08,0,0,1-.15,2.45H225c.66,2.71,2.58,4,5.31,4a8.25,8.25,0,0,0,5.41-2.17l5.11,4.75A15.08,15.08,0,0,1,229.88,81c-7.79,0-13.08-5.18-13.08-12.92S222,54.83,229.52,54.83C236.88,54.83,241.91,60.14,241.94,67.91ZM225,65.35h9c-.63-2.48-2.17-3.79-4.47-3.79C227.1,61.56,225.6,62.9,225,65.35ZM269.55,64V80.32h-7.91V66.85c0-2.94-1.47-4.58-3.92-4.58-2.2,0-4,1.49-4,4.7V80.32h-7.92V55.52h7.59v3.11c1.56-2.61,4.07-3.8,7.38-3.8C265.71,54.83,269.55,58.3,269.55,64Zm23.63-1.52h-8.47v7.26c0,2.86,1.51,3.82,3.51,3.82a9.14,9.14,0,0,0,4.3-1.55l2.73,6.18a14.2,14.2,0,0,1-8.8,2.75c-6.65,0-9.66-4-9.66-10.19V62.52h-4.63v-7h4.63V48.28h7.92v7.24h8.47Zm23.94.63A23.91,23.91,0,0,0,309,61.23c-2.07,0-2.88.61-2.88,1.52,0,1.06,1.56,1.31,4,1.69l1.82.28c5.31.81,8.12,3.36,8.12,7.54,0,5.43-4.25,8.7-11.48,8.7-4.25,0-8.62-.76-11.46-2.61l2.76-6.12a16.67,16.67,0,0,0,8.75,2.33c2.45,0,3.46-.56,3.46-1.62s-1.11-1.34-3.92-1.77l-1.44-.2c-6-.89-8.75-3.37-8.75-7.82,0-5.28,4-8.29,10.73-8.29A26.22,26.22,0,0,1,319.32,57Z"/>
</svg>